<svg id="Layer_1" data-name="Layer 1" xmlns="http://www.w3.org/2000/svg" viewBox="0 0 325 43"><title>Artboard 1</title><path d="M75,12.14C74,8.7,72.64,5,68,5a5.65,5.65,0,0,0-6,5.92c0,3.93,2.58,5.77,6.84,8s9.31,4.69,9.31,10.71c0,5.66-4.79,10.18-11.95,10.18A18.66,18.66,0,0,1,60.9,39a17.69,17.69,0,0,1-2.63-1.13,64,64,0,0,1-1.46-8.34l1.56-.38c.86,3.28,3.29,8.72,8.83,8.72,4,0,6.46-2.53,6.46-6.46s-3-5.87-7-8c-3.44-1.83-8.88-4.52-8.88-10.6,0-5.17,4.15-9.59,11.09-9.59a22.45,22.45,0,0,1,6.78,1.24c.22,1.94.49,4,.92,7.43Z" style="fill:#fff"/><path d="M111.13,39v-1.4c3.17-.32,3.77-.54,3.77-4.36v-9c0-3.82-1.35-6.24-4.74-6.24-1.94,0-4,1.07-6,2.8a12.29,12.29,0,0,1,.16,2.26V33.51c0,3.4.49,3.72,3.45,4V39H96.22v-1.4c3.33-.32,3.82-.59,3.82-4.14V24.15c0-4-1.4-6.19-4.68-6.19-2.16,0-4.26,1.45-5.87,2.8V33.41c0,3.5.43,3.82,3.07,4.14V39H81.2v-1.4c3.55-.32,4-.64,4-4.14V22.26c0-3.44-.17-3.71-3.29-4.2V16.83a32.49,32.49,0,0,0,7.48-2.21V19c1.13-.75,2.32-1.72,3.93-2.75a8,8,0,0,1,4.42-1.45,6.42,6.42,0,0,1,6,4.42,50.48,50.48,0,0,1,4.47-3,7.47,7.47,0,0,1,4-1.4c4.2,0,6.84,3,6.84,8.24V33.41c0,3.6.43,3.82,3.49,4.14V39Z" style="fill:#fff"/><path d="M125.56,39v-1.4c3.39-.32,3.76-.64,3.76-4.3V22.16c0-3.34-.16-3.56-3.39-4.1V16.77a33.86,33.86,0,0,0,7.65-2.1V33.25c0,3.66.37,4,3.82,4.3V39Zm2.85-31.6a2.77,2.77,0,0,1,2.74-2.8,2.69,2.69,0,0,1,2.69,2.8,2.75,2.75,0,0,1-2.74,2.75A2.82,2.82,0,0,1,128.41,7.35Z" style="fill:#fff"/><path d="M150,38.9a5.48,5.48,0,0,1-2.26.7c-3.39,0-5.27-2.16-5.27-6.41V17.53h-3.72l-.21-.54L140,15.43h2.48V11.5L146,7.94l.75.11v7.38h6.08a1.52,1.52,0,0,1-.32,2.1h-5.76V31.36c0,4.36,1.78,5.17,3.12,5.17a7.63,7.63,0,0,0,3.34-.92l.48,1.4Z" style="fill:#fff"/><path d="M170.61,39v-1.4c3.12-.32,3.55-.64,3.55-4.14V24.47c0-4.41-1.67-6.62-5.27-6.62a7.6,7.6,0,0,0-5.6,2.74V33.41c0,3.44.27,3.82,3.45,4.14V39H155.32v-1.4c3.23-.27,3.72-.59,3.72-4.14V7.73c0-3.39-.11-3.66-3.66-4V2.51A58.91,58.91,0,0,0,163.29.62V18.71c1.88-1.94,4.79-3.93,7.7-3.93,4.36,0,7.43,2.75,7.43,9.21v9.42c0,3.55.37,3.87,3.55,4.14V39Z" style="fill:#fff"/><path d="M198.5,21.78c-1-3.18-2.91-5.33-5.55-5.33a3.51,3.51,0,0,0-3.5,3.71c0,2.43,2.16,3.66,4.58,4.69,4,1.67,6.78,3.6,6.78,7.32,0,4.9-4.58,7.43-8.88,7.43a10.85,10.85,0,0,1-6.19-1.83,25.34,25.34,0,0,1-.86-6.36l1.4-.26c1,3.55,3.39,6.67,6.62,6.67a3.76,3.76,0,0,0,3.82-3.77c0-2.37-1.56-3.66-4.25-4.9-3.23-1.5-6.73-3.28-6.73-7.42,0-3.77,3.23-7,8.18-7a12.5,12.5,0,0,1,4.79.92,41.39,41.39,0,0,1,1.19,5.76Z" style="fill:#fff"/><path d="M228.32,26.79c0,8.66-6.35,12.81-11.68,12.81a11.66,11.66,0,0,1-11.79-11.9c0-8.88,6.89-12.92,11.79-12.92A11.68,11.68,0,0,1,228.32,26.79ZM209.85,26c0,6.78,3,11.84,7.38,11.84,3.34,0,6.08-2.48,6.08-9.85,0-6.3-2.53-11.41-7.21-11.41C212.76,16.56,209.85,19.9,209.85,26Z" style="fill:#fff"/><path d="M246.62,39v-1.4c3.18-.32,3.55-.75,3.55-4.47v-9c0-3.71-1.29-6.13-4.89-6.13-2.16,0-4.26,1.34-5.87,2.74V33.35c0,3.66.32,3.88,3.5,4.2V39H231.23v-1.4c3.66-.37,3.93-.64,3.93-4.2V22.21c0-3.45-.33-3.61-3.23-4.15V16.83a32.55,32.55,0,0,0,7.48-2.21v4.31c1.07-.81,2.26-1.62,3.6-2.53a8.27,8.27,0,0,1,4.47-1.62c4.26,0,7,3,7,8.18V33.35c0,3.66.27,3.88,3.39,4.2V39Z" style="fill:#fff"/><path d="M260.83,39v-1.4c3.39-.32,3.77-.64,3.77-4.3V22.16c0-3.34-.16-3.56-3.39-4.1V16.77a33.92,33.92,0,0,0,7.64-2.1V33.25c0,3.66.38,4,3.83,4.3V39Zm2.86-31.6a2.77,2.77,0,0,1,2.74-2.8,2.69,2.69,0,0,1,2.69,2.8,2.75,2.75,0,0,1-2.74,2.75A2.82,2.82,0,0,1,263.69,7.35Z" style="fill:#fff"/><path d="M292.43,39.6a4.37,4.37,0,0,1-2.53-1,5.54,5.54,0,0,1-1.29-2.42c-2.15,1.46-4.74,3.45-6.35,3.45A6.5,6.5,0,0,1,275.8,33c0-2.64,1.4-4.31,4.36-5.33,3.23-1.08,7.16-2.53,8.34-3.5v-1c0-3.87-1.83-6.08-4.52-6.08a3,3,0,0,0-2.42,1.08,7.78,7.78,0,0,0-1.62,3.55A1.5,1.5,0,0,1,278.38,23,2.63,2.63,0,0,1,276,20.7c0-.8.7-1.4,1.72-2.15a24,24,0,0,1,8.08-3.77,7.06,7.06,0,0,1,4.41,1.45c1.89,1.57,2.43,3.77,2.43,6.57v10c0,2.43,1,3.23,1.88,3.23a4,4,0,0,0,1.94-.59l.54,1.4ZM288.5,26c-1.13.59-3.71,1.72-4.84,2.26-2.1,1-3.29,2-3.29,3.93a4,4,0,0,0,3.82,4.15,7.74,7.74,0,0,0,4.31-1.94Z" style="fill:#fff"/><path d="M313.8,39v-1.4c3.18-.32,3.56-.75,3.56-4.47v-9c0-3.71-1.3-6.13-4.9-6.13-2.16,0-4.26,1.34-5.87,2.74V33.35c0,3.66.32,3.88,3.5,4.2V39H298.41v-1.4c3.66-.37,3.93-.64,3.93-4.2V22.21c0-3.45-.33-3.61-3.23-4.15V16.83a32.55,32.55,0,0,0,7.48-2.21v4.31c1.08-.81,2.26-1.62,3.61-2.53a8.21,8.21,0,0,1,4.46-1.62c4.26,0,6.95,3,6.95,8.18V33.35c0,3.66.27,3.88,3.39,4.2V39Z" style="fill:#fff"/><path d="M36.5,26.57A5.23,5.23,0,0,0,32,23.76h0L42.8,21.5,32,19.25h0a8.69,8.69,0,0,1,5.36-2c2.38,0,4.44-2.95,3.12-5.18,0,0-.39,3.51-4.82,2.34a5.28,5.28,0,0,0-5.17,1.19h0l6.05-9.23-9.23,6.05h0a8.76,8.76,0,0,1,2.38-5.2C31.33,5.5,30.73,2,28.22,1.34c0,0,2.21,2.76-1.75,5.06a5.25,5.25,0,0,0-2.81,4.5h0L21.4.1,19.15,10.9h0a8.73,8.73,0,0,1-2-5.36c0-2.38-2.94-4.43-5.17-3.12,0,0,3.51.39,2.34,4.82a5.24,5.24,0,0,0,1.19,5.17h0l-9.23-6h0l4.93,7.52,1.12,1.71h0A8.72,8.72,0,0,1,7.1,13.22c-1.7-1.65-5.21-1.05-5.87,1.46,0,0,2.76-2.21,5.07,1.75a5.23,5.23,0,0,0,4.5,2.81h0L0,21.5l10.8,2.25h0a8.69,8.69,0,0,1-5.36,2c-2.38,0-4.44,2.94-3.12,5.18,0,0,.39-3.52,4.82-2.35a5.25,5.25,0,0,0,5.17-1.19h0L6.27,36.63l9.23-6a8.79,8.79,0,0,1-2.38,5.21c-1.65,1.7-1,5.21,1.46,5.87,0,0-2.21-2.76,1.75-5.07a5.22,5.22,0,0,0,2.81-4.5h0L21.4,42.9l2.25-10.8h0a8.77,8.77,0,0,1,2,5.37c0,2.37,2.94,4.43,5.17,3.11,0,0-3.51-.38-2.34-4.82a5.25,5.25,0,0,0-1.19-5.17h0l9.23,6-3.2-4.87L30.49,27.4h0a8.8,8.8,0,0,1,5.21,2.38c1.7,1.66,5.21,1,5.87-1.45C41.57,28.33,38.81,30.53,36.5,26.57Z" style="fill:#fff"/></svg>